PathFileType	4	(x/y/z)	TRC_MarkerData\Passive\Passive_Pref0007.trc
DataRate	CameraRate	NumFrames	NumMarkers	Units	OrigDataRate	OrigDataStartFrame	OrigNumFrames
240	240	9	50	mm	240	129	256
Frame#	Time	R_AC			L_AC			HEAD			STERN			L_IC			R_IC			L_ASIS			R_ASIS			L_GT			R_GT			L_PSIS			R_PSIS			SACRAL			L_LAT_KNEE			L_MED_KNEE			R_LAT_KNEE			R_MED_KNEE			L_LAT_ANK			L_MED_ANK			R_LAT_ANK			R_MED_ANK			L_THIGH_PROX_POST			L_THIGH_PROX_ANT			L_THIGH_DIST_ANT			L_THIGH_DIST_POST			R_THIGH_PROX_POST			R_THIGH_PROX_ANT			R_THIGH_DIST_ANT			R_THIGH_DIST_POST			L_SHANK_PROX_POST			L_SHANK_PROX_ANT			L_SHANK_DIST_ANT			L_SHANK_DIST_POST			R_SHANK_PROX_POST			R_SHANK_PROX_ANT			R_SHANK_DIST_ANT			R_SHANK_DIST_POST			L_HEEL_LAT			L_HEEL_SUP			L_HEEL_MED			R_HEEL_LAT			R_HEEL_SUP			R_HEEL_MED			L_1ST_MET			L_5TH_MET			L_TOE			R_1ST_MET			R_5TH_MET			R_TOE			C7			
		X1	Y1	Z1	X2	Y2	Z2	X3	Y3	Z3	X4	Y4	Z4	X5	Y5	Z5	X6	Y6	Z6	X7	Y7	Z7	X8	Y8	Z8	X9	Y9	Z9	X10	Y10	Z10	X11	Y11	Z11	X12	Y12	Z12	X13	Y13	Z13	X14	Y14	Z14	X15	Y15	Z15	X16	Y16	Z16	X17	Y17	Z17	X18	Y18	Z18	X19	Y19	Z19	X20	Y20	Z20	X21	Y21	Z21	X22	Y22	Z22	X23	Y23	Z23	X24	Y24	Z24	X25	Y25	Z25	X26	Y26	Z26	X27	Y27	Z27	X28	Y28	Z28	X29	Y29	Z29	X30	Y30	Z30	X31	Y31	Z31	X32	Y32	Z32	X33	Y33	Z33	X34	Y34	Z34	X35	Y35	Z35	X36	Y36	Z36	X37	Y37	Z37	X38	Y38	Z38	X39	Y39	Z39	X40	Y40	Z40	X41	Y41	Z41	X42	Y42	Z42	X43	Y43	Z43	X44	Y44	Z44	X45	Y45	Z45	X46	Y46	Z46	X47	Y47	Z47	X48	Y48	Z48	X49	Y49	Z49	X50	Y50	Z50	

129	0.53542	-77.048	1473	413.55	-2.5502	1491.6	69.689	-37.199	1766.9	243.98	-4.1609	1425.2	243.7	-94.477	1049.4	80.667	-78.583	1085.1	404.74	-40.603	965.57	105.41	-4.4959	995.41	377.77	-152.49	890.04	65.415	-61.158	931.49	444.03	-210.01	1041.6	203.37	-205.03	1055.5	294.67	-221.45	1017.1	253.17	-250.55	504	134.79	-281.18	516.59	269.11	54.602	532.75	386.46	35.496	540.92	253.71	-462.54	141.67	165.09	-461.6	142.5	236.52	170.2	113	349.14	173.77	144	262.05	-204.19	734.48	103.38	-144.41	714.63	111.24	-160.13	644.12	128.84	-223.11	662.66	119.01	-42.631	710.82	417.14	19.985	737.82	422.37	43.605	668.23	407.86	-18.248	641.53	400.66	-304.07	435.39	139.35	-260.72	426.18	165.88	-296.39	379.36	172.28	-352.21	395.55	161.77	40.602	354.15	379.8	105.04	376.9	387.9	126.61	304.59	375.72	59.758	283.58	364.02	-568.8	104.68	170.89	-562.53	132.75	205.3	-565.95	102.69	238.43	137.01	27.782	313.57	122.01	55.866	282.94	146.57	42.897	248.84	-372.14	52.736	250.49	-402.63	40.282	144.3	-310.3	48.45	217.81	326.23	136.51	271.19	303.89	95.966	370.63	369.52	155.81	326.51	-113.24	1544.2	226.47
130	0.53961	-70.63	1471.4	414.08	3.9911	1490.1	70.295	-30.984	1765.4	244.42	2.3305	1423.6	244.21	-87.847	1047.7	80.797	-72.14	1083.7	405.13	-33.879	963.86	105.61	2.217	994.16	378.22	-145.93	888.48	65.602	-54.262	930.32	444.18	-203.33	1039.7	203.56	-198.42	1053.8	294.86	-214.8	1015.3	253.38	-245.54	502.82	134.83	-276.07	515.78	269.18	63.057	532.01	385.6	44.141	540.64	253.13	-461.21	142.66	165.09	-460.28	143.51	236.53	173.48	111.73	348.14	177.21	142.24	260.85	-198.35	733.35	103.52	-138.6	713.25	111.39	-154.54	642.78	128.93	-217.45	661.54	119.17	-34.683	709.78	416.74	27.712	737.06	421.93	51.645	667.57	407.27	-10.102	640.62	400.1	-299.75	434.75	139.38	-256.48	425.09	165.93	-292.62	378.66	172.32	-348.3	395.4	161.8	47.365	353.75	378.97	112.09	375.81	386.7	132.75	303.25	374.47	65.597	283	363.35	-567.66	106.63	170.84	-561.2	134.74	205.26	-565.02	104.76	238.44	138.39	27.785	313.05	124.03	56.061	282.37	148.16	42.311	248.23	-371.99	52.741	250.54	-402.34	40.485	144.32	-310.1	48.171	217.9	329.51	132.04	269.36	306.8	92.43	368.98	373.33	150.84	324.49	-106.87	1542.7	226.98
131	0.54379	-64.216	1469.8	414.62	10.548	1488.7	70.913	-24.759	1764	244.88	8.8279	1422.1	244.75	-81.122	1046.1	80.921	-65.71	1082.3	405.51	-27.093	962.2	105.85	8.935	992.98	378.72	-139.27	886.94	65.768	-47.415	929.21	444.34	-196.61	1037.9	203.69	-191.78	1052.2	294.99	-208.13	1013.7	253.53	-240.36	501.6	134.86	-270.79	514.96	269.23	71.581	531.36	384.77	52.754	540.42	252.6	-459.79	143.73	165.07	-458.89	144.59	236.54	176.54	110.5	347.24	180.46	140.52	259.76	-192.43	732.23	103.64	-132.69	711.89	111.54	-148.83	641.46	129.02	-211.69	660.41	119.32	-26.756	708.79	416.36	35.413	736.35	421.51	59.662	666.95	406.71	-1.9788	639.76	399.54	-295.27	434.09	139.39	-252.09	423.98	165.98	-288.71	377.95	172.35	-344.23	395.26	161.83	54.133	353.46	378.25	119.16	374.8	385.55	138.86	301.99	373.28	71.4	282.53	362.81	-566.42	108.72	170.78	-559.77	136.87	205.21	-564.01	106.98	238.42	139.5	27.858	312.64	125.8	56.333	281.91	149.47	41.798	247.72	-371.79	52.767	250.6	-402.01	40.728	144.36	-309.88	47.859	218	332.58	127.45	267.61	309.48	88.837	367.43	376.93	145.72	322.54	-100.49	1541.3	227.49
132	0.54797	-57.807	1468.4	415.17	17.121	1487.3	71.541	-18.523	1762.7	245.33	15.332	1420.7	245.3	-74.307	1044.5	81.039	-59.29	1080.9	405.9	-20.251	960.58	106.14	15.654	991.87	379.25	-132.54	885.43	65.915	-40.616	928.14	444.52	-189.87	1036.2	203.77	-185.13	1050.6	295.07	-201.43	1012.1	253.61	-234.98	500.35	134.88	-265.32	514.12	269.27	80.158	530.79	383.95	61.299	540.25	252.11	-458.28	144.89	165.05	-457.39	145.76	236.54	179.43	109.32	346.46	183.53	138.85	258.78	-186.41	731.1	103.76	-126.66	710.56	111.7	-143	640.15	129.12	-205.81	659.29	119.47	-18.858	707.84	415.99	43.083	735.67	421.13	67.646	666.38	406.18	6.1089	638.96	399	-290.61	433.43	139.4	-247.54	422.85	166.02	-284.64	377.25	172.37	-339.99	395.12	161.84	60.906	353.27	377.63	126.24	373.88	384.46	144.95	300.81	372.16	77.176	282.16	362.4	-565.07	110.97	170.73	-558.24	139.15	205.16	-562.9	109.36	238.4	140.39	27.996	312.33	127.37	56.677	281.57	150.57	41.366	247.33	-371.55	52.818	250.69	-401.65	41.018	144.4	-309.64	47.507	218.11	335.44	122.82	265.96	311.95	85.227	365.97	380.36	140.5	320.67	-94.116	1539.9	228
133	0.55216	-51.404	1466.9	415.73	23.707	1486	72.176	-12.276	1761.5	245.8	21.842	1419.3	245.88	-67.405	1043	81.153	-52.879	1079.6	406.28	-13.359	959.02	106.47	22.369	990.83	379.8	-125.74	883.94	66.044	-33.867	927.13	444.71	-183.09	1034.6	203.8	-178.47	1049.1	295.11	-194.72	1010.5	253.64	-229.39	499.06	134.9	-259.64	513.25	269.3	88.773	530.31	383.17	69.748	540.14	251.67	-456.66	146.14	165.03	-455.79	147.03	236.54	182.16	108.2	345.79	186.44	137.27	257.92	-180.29	729.99	103.88	-120.53	709.25	111.86	-137.04	638.87	129.22	-199.8	658.16	119.62	-10.996	706.94	415.64	50.714	735.05	420.79	75.588	665.85	405.67	14.153	638.2	398.48	-285.76	432.74	139.39	-242.8	421.7	166.06	-280.4	376.53	172.38	-335.56	395	161.85	67.681	353.19	377.12	133.33	373.05	383.45	151.02	299.72	371.13	82.929	281.89	362.11	-563.61	113.38	170.68	-556.59	141.59	205.09	-561.67	111.9	238.38	141.11	28.194	312.12	128.78	57.086	281.33	151.48	41.02	247.02	-371.25	52.895	250.8	-401.25	41.361	144.46	-309.37	47.114	218.24	338.12	118.2	264.4	314.23	81.635	364.61	383.61	135.24	318.89	-87.739	1538.6	228.52
134	0.55634	-45.006	1465.6	416.3	30.305	1484.8	72.813	-6.0176	1760.3	246.27	28.361	1418	246.47	-60.423	1041.5	81.263	-46.477	1078.5	406.66	-6.4269	957.53	106.85	29.076	989.87	380.38	-118.87	882.5	66.158	-27.166	926.18	444.92	-176.29	1033	203.78	-171.81	1047.7	295.1	-188	1009.1	253.61	-223.59	497.72	134.92	-253.73	512.36	269.32	97.408	529.92	382.42	78.076	540.08	251.27	-454.92	147.49	165.02	-454.08	148.39	236.54	184.75	107.16	345.24	189.22	135.78	257.17	-174.06	728.88	104.02	-114.27	707.98	112.03	-130.94	637.61	129.33	-193.67	657.04	119.76	-3.1759	706.11	415.34	58.303	734.47	420.5	83.483	665.36	405.21	22.147	637.5	398.01	-280.71	432.05	139.38	-237.87	420.52	166.1	-275.99	375.82	172.4	-330.93	394.89	161.86	74.451	353.21	376.73	140.4	372.32	382.52	157.06	298.73	370.18	88.657	281.74	361.95	-562.03	115.97	170.66	-554.81	144.2	205.03	-560.33	114.62	238.36	141.7	28.444	311.99	130.05	57.552	281.18	152.25	40.765	246.8	-370.89	53.002	250.93	-400.81	41.767	144.55	-309.08	46.675	218.38	340.62	113.63	262.94	316.34	78.097	363.37	386.7	129.98	317.23	-81.361	1537.4	229.04
135	0.56052	-38.613	1464.3	416.86	36.915	1483.7	73.449	0.2523	1759.2	246.74	34.889	1416.7	247.07	-53.368	1040.2	81.372	-40.082	1077.4	407.03	0.53802	956.1	107.26	35.769	988.99	380.97	-111.94	881.09	66.26	-20.515	925.29	445.14	-169.47	1031.5	203.71	-165.16	1046.4	295.05	-181.27	1007.7	253.53	-217.55	496.34	134.93	-247.58	511.42	269.33	106.05	529.62	381.71	86.266	540.07	250.92	-453.06	148.95	165.01	-452.23	149.86	236.56	187.21	106.19	344.79	191.87	134.39	256.55	-167.73	727.77	104.16	-107.9	706.74	112.21	-124.7	636.37	129.44	-187.39	655.91	119.91	4.599	705.33	415.07	65.85	733.95	420.25	91.328	664.94	404.79	30.089	636.86	397.57	-275.44	431.33	139.37	-232.73	419.31	166.14	-271.38	375.09	172.42	-326.1	394.78	161.87	81.205	353.35	376.47	147.46	371.68	381.67	163.06	297.84	369.32	94.352	281.71	361.91	-560.33	118.76	170.66	-552.87	146.98	204.97	-558.85	117.53	238.35	142.18	28.739	311.94	131.21	58.065	281.12	152.9	40.598	246.66	-370.46	53.143	251.09	-400.33	42.242	144.65	-308.75	46.187	218.54	342.96	109.17	261.61	318.31	74.648	362.24	389.62	124.77	315.67	-74.981	1536.2	229.55
136	0.56471	-32.224	1463.1	417.42	43.536	1482.7	74.08	6.5332	1758.2	247.21	41.428	1415.6	247.68	-46.248	1038.9	81.481	-33.695	1076.4	407.38	7.5267	954.76	107.7	42.445	988.19	381.57	-104.97	879.73	66.355	-13.915	924.48	445.38	-162.64	1030.2	203.6	-158.51	1045.2	294.96	-174.54	1006.5	253.4	-211.27	494.9	134.94	-241.16	510.45	269.34	114.67	529.4	381.04	94.309	540.1	250.61	-451.06	150.53	165.01	-450.24	151.44	236.58	189.54	105.3	344.46	194.39	133.12	256.05	-161.28	726.68	104.32	-101.4	705.55	112.41	-118.3	635.17	129.57	-180.98	654.78	120.07	12.325	704.63	414.86	73.354	733.49	420.05	99.121	664.57	404.41	37.974	636.3	397.19	-269.94	430.6	139.35	-227.37	418.06	166.18	-266.57	374.36	172.43	-321.04	394.68	161.9	87.925	353.58	376.32	154.48	371.13	380.91	169.01	297.05	368.55	100	281.78	361.99	-558.48	121.74	170.69	-550.78	149.95	204.93	-557.21	120.63	238.35	142.59	29.07	311.95	132.28	58.615	281.13	153.46	40.517	246.59	-369.95	53.319	251.27	-399.79	42.798	144.77	-308.38	45.649	218.7	345.14	104.85	260.4	320.13	71.319	361.24	392.39	119.67	314.24	-68.599	1535.1	230.06
137	0.56889	-25.838	1462	417.97	50.165	1481.7	74.705	12.824	1757.3	247.7	47.977	1414.6	248.3	-39.072	1037.7	81.594	-27.319	1075.5	407.72	14.53	953.5	108.18	49.1	987.48	382.17	-97.946	878.43	66.446	-7.367	923.75	445.63	-155.8	1029	203.45	-151.88	1044.1	294.84	-167.81	1005.4	253.23	-204.72	493.41	134.95	-234.45	509.43	269.35	123.26	529.27	380.41	102.2	540.18	250.34	-448.92	152.22	165.03	-448.1	153.13	236.63	191.76	104.49	344.22	196.78	131.97	255.66	-154.72	725.58	104.5	-94.772	704.39	112.62	-111.74	634	129.71	-174.41	653.64	120.24	19.999	704	414.69	80.817	733.1	419.89	106.86	664.27	404.08	45.803	635.8	396.87	-264.21	429.85	139.33	-221.78	416.79	166.22	-261.54	373.62	172.45	-315.74	394.59	161.93	94.593	353.91	376.28	161.43	370.66	380.24	174.88	296.36	367.88	105.59	281.95	362.18	-556.5	124.94	170.76	-548.5	153.1	204.92	-555.41	123.93	238.39	142.94	29.429	312.01	133.26	59.192	281.21	153.94	40.516	246.58	-369.35	53.536	251.46	-399.2	43.443	144.91	-307.98	45.059	218.87	347.16	100.72	259.32	321.81	68.141	360.36	394.99	114.72	312.94	-62.215	1534.1	230.56
